# Blender v3.0.1 OBJ File: 'wallWithPlane.blend'
# www.blender.org
mtllib wallWithPlane.mtl
o wall.001_ID5
v -0.562500 -0.000000 -0.716142
v -0.562500 1.000000 -0.716142
v -0.500000 -0.000000 -0.653642
v -0.500000 1.000000 -0.653642
v 0.500000 -0.000000 -0.778642
v 0.500000 -0.000000 -0.653642
v -0.500000 -0.000000 -0.778642
v -0.500000 -0.000000 -0.653642
v -0.562500 -0.000000 -0.716142
v 0.500000 1.000000 -0.653642
v 0.500000 1.000000 -0.778642
v -0.500000 1.000000 -0.778642
v -0.500000 1.000000 -0.653642
v -0.562500 1.000000 -0.716142
v -0.500000 -0.000000 -0.778642
v 0.500000 -0.000000 -0.778642
v -0.500000 1.000000 -0.778642
v 0.500000 1.000000 -0.778642
v -0.562500 -0.000000 -0.716142
v -0.500000 -0.000000 -0.778642
v -0.562500 1.000000 -0.716142
v -0.500000 1.000000 -0.778642
v 0.500000 -0.000000 -0.653642
v -0.500000 -0.000000 -0.653642
v 0.500000 1.000000 -0.653642
v -0.500000 1.000000 -0.653642
vt -0.562500 0.000000
vt -0.500000 0.000000
vt -0.562500 1.000000
vt -0.500000 1.000000
vt 0.500000 1.000000
vt 0.500000 0.000000
vt -0.500000 0.000000
vt -0.500000 1.000000
vt 0.500000 0.562500
vt -0.500000 0.562500
vt -0.500000 0.437500
vt 0.500000 0.437500
vt 0.562500 0.500000
vt 0.500000 -0.562500
vt -0.500000 -0.437500
vt -0.500000 -0.562500
vt 0.500000 -0.437500
vt 0.562500 -0.500000
vt 0.500000 0.000000
vt 0.500000 1.000000
vt 0.562500 0.000000
vt 0.562500 1.000000
vt 0.500000 0.000000
vt 0.500000 1.000000
vt -0.500000 0.000000
vt -0.500000 1.000000
vn -0.7071 0.0000 0.7071
vn 1.0000 0.0000 0.0000
vn 0.0000 -1.0000 0.0000
vn 0.0000 1.0000 0.0000
vn 0.0000 -0.0000 -1.0000
vn -0.7071 -0.0000 -0.7071
vn 0.0000 0.0000 1.0000
usemtl stone_x0028_Clone_x0029_.002
s off
f 1/1/1 3/2/1 2/3/1
f 4/4/1 2/3/1 3/2/1
f 25/5/2 23/6/2 16/7/2 18/8/2
f 7/9/3 5/10/3 6/11/3
f 8/12/3 7/9/3 6/11/3
f 9/13/3 7/9/3 8/12/3
f 12/14/4 10/15/4 11/16/4
f 13/17/4 10/15/4 12/14/4
f 14/18/4 13/17/4 12/14/4
f 15/19/5 17/20/5 16/7/5
f 18/8/5 16/7/5 17/20/5
f 19/21/6 21/22/6 20/23/6
f 22/24/6 20/23/6 21/22/6
f 23/6/7 25/5/7 24/25/7
f 26/26/7 24/25/7 25/5/7
